<svg width="51" height="44" viewBox="0 0 51 44" fill="none" xmlns="http://www.w3.org/2000/svg">
<path fill-rule="evenodd" clip-rule="evenodd" d="M38.8476 0C46.2187 0 51 4.125 51 10.4844V33.5156C51 39.875 46.2187 44 38.8476 44H12.1524C4.78125 44 0 39.875 0 33.5156V10.4844C0 4.125 4.78125 0 12.1524 0H38.8476Z" fill="white"/>
<g filter="url(#filter0_d_2_2206)">
<path d="M37.825 8.06671H13.175C11.7667 8.06671 10.625 9.05168 10.625 10.2667V13.5667C10.625 14.7817 11.7667 15.7667 13.175 15.7667H37.825C39.2333 15.7667 40.375 14.7817 40.375 13.5667V10.2667C40.375 9.05168 39.2333 8.06671 37.825 8.06671Z" fill="#C4C4C4"/>
</g>
<path fill-rule="evenodd" clip-rule="evenodd" d="M16.5486 11.0654L19.7379 13.9388H23.0679L18.3183 9.47827L16.5486 11.0654Z" fill="url(#paint0_linear_2_2206)"/>
<g filter="url(#filter1_d_2_2206)">
<path fill-rule="evenodd" clip-rule="evenodd" d="M17.425 11.3667C18.1291 11.3667 18.7 10.8742 18.7 10.2667C18.7 9.65916 18.1291 9.16669 17.425 9.16669C16.7208 9.16669 16.15 9.65916 16.15 10.2667C16.15 10.8742 16.7208 11.3667 17.425 11.3667Z" fill="#EFEFEF"/>
</g>
<path fill-rule="evenodd" clip-rule="evenodd" d="M32.6986 11.0654L35.8879 13.9388H39.2179L34.4683 9.47827L32.6986 11.0654Z" fill="url(#paint1_linear_2_2206)"/>
<g filter="url(#filter2_d_2_2206)">
<path fill-rule="evenodd" clip-rule="evenodd" d="M33.575 11.3667C34.2792 11.3667 34.85 10.8742 34.85 10.2667C34.85 9.65916 34.2792 9.16669 33.575 9.16669C32.8708 9.16669 32.3 9.65916 32.3 10.2667C32.3 10.8742 32.8708 11.3667 33.575 11.3667Z" fill="#EFEFEF"/>
</g>
<g filter="url(#filter3_d_2_2206)">
<path fill-rule="evenodd" clip-rule="evenodd" d="M42.1273 14.6667C42.3423 13.4519 41.3464 12.4667 39.9024 12.4667H11.0897C9.64684 12.4667 8.64953 13.4517 8.86479 14.6667L10.5536 24.1988L9.6391 33.7299C9.42384 34.945 11.3016 35.93 12.7445 35.93H38.3969C39.8409 35.93 41.288 34.9447 41.0728 33.7299L40.4384 24.1991L42.1273 14.6667Z" fill="#4687F4"/>
</g>
<g filter="url(#filter4_d_2_2206)">
<path fill-rule="evenodd" clip-rule="evenodd" d="M11.0897 12.4667H39.9024C41.3464 12.4667 42.3423 13.4519 42.1273 14.6667L40.4383 24.2H10.5538L8.86479 14.6667C8.64953 13.4517 9.64684 12.4667 11.0897 12.4667Z" fill="#3866D0"/>
</g>
<path fill-rule="evenodd" clip-rule="evenodd" d="M38.3969 35.9299C39.8409 35.9299 41.2881 34.9446 41.0728 33.7298L40.433 24.3801H10.5385L23.4475 35.9299H38.3969Z" fill="url(#paint2_linear_2_2206)"/>
<path fill-rule="evenodd" clip-rule="evenodd" d="M27.5649 19.6535L33.1103 17.8249V30.4743H31.3985V19.869L27.5649 21.1004V19.6535ZM19.2665 23.3849H20.9256C21.7681 23.3849 22.3645 23.2006 22.715 22.832C23.0655 22.4634 23.2407 21.9499 23.2407 21.2915C23.2407 20.5881 23.0414 20.0535 22.6426 19.6877C22.2439 19.3219 21.6555 19.139 20.8774 19.139C20.1379 19.139 19.5446 19.329 19.0977 19.7088C18.6507 20.0887 18.4273 20.5937 18.4273 21.224H16.6041L16.5848 21.1733C16.5527 20.2448 16.9369 19.4556 17.7375 18.8056C18.5382 18.1557 19.5848 17.8307 20.8774 17.8307C22.1764 17.8307 23.2118 18.1331 23.9835 18.7381C24.7552 19.343 25.141 20.2054 25.141 21.3253C25.141 21.8318 24.9658 22.3368 24.6153 22.8404C24.2648 23.3441 23.7391 23.7282 23.0381 23.9927C23.8806 24.2347 24.477 24.6145 24.8275 25.1322C25.178 25.6499 25.3532 26.2295 25.3532 26.8711C25.3532 27.9909 24.9336 28.8716 24.0944 29.5132C23.2552 30.1547 22.1828 30.4754 20.8774 30.4754C19.5976 30.4754 18.5382 30.173 17.699 29.568C16.8597 28.963 16.4562 28.1429 16.4884 27.1074L16.5173 27.0568H18.3308C18.3308 27.704 18.5575 28.2188 19.0108 28.6015C19.4642 28.9842 20.0864 29.1755 20.8774 29.1755C21.6812 29.1755 22.3115 28.9842 22.7681 28.6015C23.2246 28.2188 23.4529 27.6533 23.4529 26.9048C23.4529 26.1451 23.2503 25.5852 22.8452 25.2251C22.4401 24.8649 21.8002 24.6848 20.9256 24.6848H19.2665V23.3849Z" fill="#EEEEEE"/>
<path fill-rule="evenodd" clip-rule="evenodd" d="M23.6384 24.2H19.2662V23.8246H20.9302C21.775 23.8246 22.3732 23.7398 22.7247 23.5702C23.0762 23.4006 23.252 23.1644 23.252 22.8615C23.252 22.5379 23.052 22.2919 22.6522 22.1237C22.2523 21.9554 21.6622 21.8712 20.8818 21.8712C20.1401 21.8712 19.5452 21.9586 19.0969 22.1334C18.6487 22.3081 18.4246 22.5405 18.4246 22.8304H16.5962L16.5769 22.8071C16.5446 22.38 16.93 22.0169 17.7329 21.7178C18.5359 21.4188 19.5855 21.2693 20.8818 21.2693C22.1846 21.2693 23.2229 21.4085 23.9968 21.6868C24.7708 21.9651 25.1577 22.3618 25.1577 22.877C25.1577 23.11 24.982 23.3424 24.6305 23.5741C24.279 23.8058 23.7517 23.9825 23.0488 24.1042C23.2609 24.1321 23.4574 24.164 23.6384 24.2ZM33.15 24.1971V21.2667L27.5886 22.1079V22.7736L31.4333 22.2071V24.1971H33.15Z" fill="#D4D4D4"/>
<g filter="url(#filter5_d_2_2206)">
<path fill-rule="evenodd" clip-rule="evenodd" d="M12.7445 35.9299H38.3969C39.8409 35.9299 41.2881 34.9447 41.0728 33.7299L40.4383 24.1966H10.5539L9.63913 33.7299C9.42386 34.945 11.3016 35.9299 12.7445 35.9299Z" fill="black" fill-opacity="0.01"/>
</g>
<defs>
<filter id="filter0_d_2_2206" x="10.625" y="8.06671" width="29.75" height="8.70001" filterUnits="userSpaceOnUse" color-interpolation-filters="sRGB">
<feFlood flood-opacity="0" result="BackgroundImageFix"/>
<feColorMatrix in="SourceAlpha" type="matrix" values="0 0 0 0 0 0 0 0 0 0 0 0 0 0 0 0 0 0 127 0" result="hardAlpha"/>
<feOffset dy="1"/>
<feComposite in2="hardAlpha" operator="out"/>
<feColorMatrix type="matrix" values="0 0 0 0 0.792157 0 0 0 0 0.792157 0 0 0 0 0.792157 0 0 0 1 0"/>
<feBlend mode="normal" in2="BackgroundImageFix" result="effect1_dropShadow_2_2206"/>
<feBlend mode="normal" in="SourceGraphic" in2="effect1_dropShadow_2_2206" result="shape"/>
</filter>
<filter id="filter1_d_2_2206" x="15.65" y="9.16669" width="4.54999" height="4.20001" filterUnits="userSpaceOnUse" color-interpolation-filters="sRGB">
<feFlood flood-opacity="0" result="BackgroundImageFix"/>
<feColorMatrix in="SourceAlpha" type="matrix" values="0 0 0 0 0 0 0 0 0 0 0 0 0 0 0 0 0 0 127 0" result="hardAlpha"/>
<feOffset dx="0.5" dy="1"/>
<feGaussianBlur stdDeviation="0.5"/>
<feColorMatrix type="matrix" values="0 0 0 0 0 0 0 0 0 0 0 0 0 0 0 0 0 0 0.1 0"/>
<feBlend mode="normal" in2="BackgroundImageFix" result="effect1_dropShadow_2_2206"/>
<feBlend mode="normal" in="SourceGraphic" in2="effect1_dropShadow_2_2206" result="shape"/>
</filter>
<filter id="filter2_d_2_2206" x="31.8" y="9.16669" width="4.54999" height="4.20001" filterUnits="userSpaceOnUse" color-interpolation-filters="sRGB">
<feFlood flood-opacity="0" result="BackgroundImageFix"/>
<feColorMatrix in="SourceAlpha" type="matrix" values="0 0 0 0 0 0 0 0 0 0 0 0 0 0 0 0 0 0 127 0" result="hardAlpha"/>
<feOffset dx="0.5" dy="1"/>
<feGaussianBlur stdDeviation="0.5"/>
<feColorMatrix type="matrix" values="0 0 0 0 0 0 0 0 0 0 0 0 0 0 0 0 0 0 0.1 0"/>
<feBlend mode="normal" in2="BackgroundImageFix" result="effect1_dropShadow_2_2206"/>
<feBlend mode="normal" in="SourceGraphic" in2="effect1_dropShadow_2_2206" result="shape"/>
</filter>
<filter id="filter3_d_2_2206" x="8.83557" y="11.4667" width="33.3209" height="24.4633" filterUnits="userSpaceOnUse" color-interpolation-filters="sRGB">
<feFlood flood-opacity="0" result="BackgroundImageFix"/>
<feColorMatrix in="SourceAlpha" type="matrix" values="0 0 0 0 0 0 0 0 0 0 0 0 0 0 0 0 0 0 127 0" result="hardAlpha"/>
<feOffset dy="-1"/>
<feComposite in2="hardAlpha" operator="out"/>
<feColorMatrix type="matrix" values="0 0 0 0 0.258824 0 0 0 0 0.494118 0 0 0 0 0.913725 0 0 0 1 0"/>
<feBlend mode="normal" in2="BackgroundImageFix" result="effect1_dropShadow_2_2206"/>
<feBlend mode="normal" in="SourceGraphic" in2="effect1_dropShadow_2_2206" result="shape"/>
</filter>
<filter id="filter4_d_2_2206" x="8.83557" y="12.4667" width="33.3209" height="12.7333" filterUnits="userSpaceOnUse" color-interpolation-filters="sRGB">
<feFlood flood-opacity="0" result="BackgroundImageFix"/>
<feColorMatrix in="SourceAlpha" type="matrix" values="0 0 0 0 0 0 0 0 0 0 0 0 0 0 0 0 0 0 127 0" result="hardAlpha"/>
<feOffset dy="1"/>
<feComposite in2="hardAlpha" operator="out"/>
<feColorMatrix type="matrix" values="0 0 0 0 0.282353 0 0 0 0 0.45098 0 0 0 0 0.831373 0 0 0 1 0"/>
<feBlend mode="normal" in2="BackgroundImageFix" result="effect1_dropShadow_2_2206"/>
<feBlend mode="normal" in="SourceGraphic" in2="effect1_dropShadow_2_2206" result="shape"/>
</filter>
<filter id="filter5_d_2_2206" x="9.62216" y="24.1966" width="31.472" height="12.2333" filterUnits="userSpaceOnUse" color-interpolation-filters="sRGB">
<feFlood flood-opacity="0" result="BackgroundImageFix"/>
<feColorMatrix in="SourceAlpha" type="matrix" values="0 0 0 0 0 0 0 0 0 0 0 0 0 0 0 0 0 0 127 0" result="hardAlpha"/>
<feOffset dy="0.5"/>
<feComposite in2="hardAlpha" operator="out"/>
<feColorMatrix type="matrix" values="0 0 0 0 0.588542 0 0 0 0 0.588542 0 0 0 0 0.588542 0 0 0 0.2 0"/>
<feBlend mode="normal" in2="BackgroundImageFix" result="effect1_dropShadow_2_2206"/>
<feBlend mode="normal" in="SourceGraphic" in2="effect1_dropShadow_2_2206" result="shape"/>
</filter>
<linearGradient id="paint0_linear_2_2206" x1="15.0507" y1="11.5802" x2="17.0399" y2="15.8672" gradientUnits="userSpaceOnUse">
<stop stop-color="#B0B0B0"/>
<stop offset="1" stop-color="#D8D8D8" stop-opacity="0.01"/>
</linearGradient>
<linearGradient id="paint1_linear_2_2206" x1="31.2007" y1="11.5802" x2="33.1899" y2="15.8672" gradientUnits="userSpaceOnUse">
<stop stop-color="#B0B0B0"/>
<stop offset="1" stop-color="#D8D8D8" stop-opacity="0.01"/>
</linearGradient>
<linearGradient id="paint2_linear_2_2206" x1="14.8559" y1="25.7151" x2="15.9217" y2="36.7002" gradientUnits="userSpaceOnUse">
<stop stop-color="#3C78DD"/>
<stop offset="1" stop-color="#4688F4" stop-opacity="0.01"/>
</linearGradient>
</defs>
</svg>
